<?xml version="1.0" encoding="UTF-8" standalone="no"?>
<svg version="1.1" xmlns="http://www.w3.org/2000/svg" xmlns:xlink="http://www.w3.org/1999/xlink" width="310.08" height="258.56">
	<path id="Capital_C_by_Adam_Stanislav" transform="matrix(1,0,0,1,-241.969,-432.201)" fill="black" d="M 385.852,432.248 C 363.636,432.227 342.421,440.921 323.971,452.92 C 292.187,468.817 268.901,497.903 255.067,530.14 C 236.068,572.177 236.675,625.189 265.317,662.811 C 283.328,686.363 314.931,692.029 342.865,690.555 C 401.539,688.736 454.391,660.185 506.06,635.393 C 518.168,628.524 532.317,624.919 543.004,615.793 C 546.992,612.411 558.72,604.173 546.864,610.731 C 493.723,635.048 442.016,666.036 383.231,674.301 C 352.587,678.044 316.831,678.779 292.768,656.176 C 267.933,630.765 260.423,592.279 265.92,557.968 C 273.035,518.021 294.833,479.801 327.907,455.816 C 331.925,453.917 336.411,451.985 338.917,451.56 C 366.059,443.807 396.479,446.467 421.748,459.001 C 444.197,470.865 462.832,498.1 453.728,524.036 L 477.579,512.611 C 482.94,499.644 478.783,483.684 471.421,471.813 C 455.113,443.791 421.209,432.489 390.308,432.369 C 388.819,432.289 387.333,432.249 385.852,432.248 Z "/>
</svg>